<svg xmlns="http://www.w3.org/2000/svg" xmlns:xlink="http://www.w3.org/1999/xlink" viewBox="0 0 962.34 389.23"><defs><style>.cls-1{fill:#1b1464;}.cls-2{fill:url(#linear-gradient);}.cls-3{fill:url(#linear-gradient-2);}.cls-4{fill:url(#linear-gradient-3);}.cls-5{fill:url(#linear-gradient-4);}.cls-6{fill:url(#linear-gradient-5);}.cls-7{fill:url(#linear-gradient-6);}.cls-8{fill:url(#linear-gradient-7);}.cls-9{fill:url(#linear-gradient-8);}.cls-10{fill:url(#linear-gradient-9);}</style><linearGradient id="linear-gradient" x1="-18.04" y1="147.1" x2="111.75" y2="326.54" gradientUnits="userSpaceOnUse"><stop offset="0" stop-color="#0acefe"/><stop offset="1" stop-color="#485afe"/></linearGradient><linearGradient id="linear-gradient-2" x1="-192.46" y1="-42.91" x2="164.17" y2="138.8" xlink:href="#linear-gradient"/><linearGradient id="linear-gradient-3" x1="-161.76" y1="-103.17" x2="194.87" y2="78.53" xlink:href="#linear-gradient"/><linearGradient id="linear-gradient-4" x1="-174.3" y1="-78.56" x2="182.34" y2="103.14" xlink:href="#linear-gradient"/><linearGradient id="linear-gradient-5" x1="-155.89" y1="-114.68" x2="200.74" y2="67.02" xlink:href="#linear-gradient"/><linearGradient id="linear-gradient-6" x1="-205.39" y1="-17.53" x2="151.24" y2="164.17" xlink:href="#linear-gradient"/><linearGradient id="linear-gradient-7" x1="-180.05" y1="-67.27" x2="176.58" y2="114.43" xlink:href="#linear-gradient"/><linearGradient id="linear-gradient-8" x1="-196.55" y1="-34.89" x2="160.08" y2="146.82" xlink:href="#linear-gradient"/><linearGradient id="linear-gradient-9" x1="-170.08" y1="-86.83" x2="186.55" y2="94.87" xlink:href="#linear-gradient"/></defs><g id="Layer_2" data-name="Layer 2"><g id="Layer_1-2" data-name="Layer 1"><path class="cls-1" d="M328.45,249.87c0,46.15-33.45,81.76-74,81.76-20.74,0-35.92-7.12-46.14-18.89v76.49H161.84V172.45h46.45V187c10.22-11.77,25.4-18.89,46.14-18.89C295,168.12,328.45,203.73,328.45,249.87Zm-46.45,0c0-23.22-15.49-37.78-36.86-37.78s-36.85,14.56-36.85,37.78,15.49,37.78,36.85,37.78S282,273.1,282,249.87Z"/><path class="cls-1" d="M433.43,290.13c12.7,0,23.54-5,29.73-11.77l37.16,21.37c-15.17,21.06-38.09,31.9-67.51,31.9C379.86,331.63,347,296,347,249.87s33.45-81.75,82.38-81.75c45.21,0,78.66,35,78.66,81.75a90.54,90.54,0,0,1-1.86,18.58H396.27C402.15,284.56,416.4,290.13,433.43,290.13Zm28.5-56.36c-5-18-18.9-24.47-32.83-24.47-17.66,0-29.42,8.68-33.76,24.47Z"/><path class="cls-1" d="M627.3,168.12v54.5c-19.88-3.21-48.09,4.81-48.09,36.55v72.46H531.12V171.32h48.09v28.54C585.62,178.38,607.1,168.12,627.3,168.12Z"/><path class="cls-1" d="M746.35,331.63,696.8,263.19v68.44H650.35V114.85H696.8V244.61l46.46-67.82h54.19l-56.36,77.42L799,331.63Z"/><path class="cls-1" d="M962.34,172.45V327.29H915.89V312.74c-10.22,11.77-25.4,18.89-46.15,18.89-40.56,0-74-35.61-74-81.76s33.45-81.75,74-81.75c20.75,0,35.93,7.12,46.15,18.89V172.45Zm-46.45,77.42c0-23.22-15.48-37.78-36.85-37.78s-36.86,14.56-36.86,37.78,15.49,37.78,36.86,37.78S915.89,273.1,915.89,249.87Z"/><rect class="cls-2" x="34.61" y="168.12" width="65.82" height="194.58"/><path class="cls-3" d="M113.18,73.9a1.75,1.75,0,0,0-2.47,0l-34.2,34.19a5.79,5.79,0,0,0,0,8.19l34.2,34.19a1.73,1.73,0,0,0,2.47,0l34.19-34.19a5.79,5.79,0,0,0,0-8.19Z"/><path class="cls-4" d="M172.28,52.53,152.45,32.7a2,2,0,0,0-2.84,0L129.78,52.53a5.19,5.19,0,0,0,0,7.33l19.83,19.83a2,2,0,0,0,2.84,0l19.83-19.83A5.19,5.19,0,0,0,172.28,52.53Z"/><path class="cls-5" d="M190.13,95.83,178.54,84.24a2.46,2.46,0,0,0-3.48,0L163.47,95.83a6.35,6.35,0,0,0,0,9l11.59,11.59a2.46,2.46,0,0,0,3.48,0l11.59-11.59A6.35,6.35,0,0,0,190.13,95.83Z"/><path class="cls-6" d="M100.43,32.88a2.46,2.46,0,0,0,3.48,0L115.5,21.29a6.35,6.35,0,0,0,0-9L103.91.72a2.46,2.46,0,0,0-3.48,0L88.84,12.31a6.35,6.35,0,0,0,0,9Z"/><path class="cls-7" d="M42.93,86.4a1.93,1.93,0,0,0-2.72,0L22.73,103.88a6.35,6.35,0,0,0,0,9L39.83,130a2.46,2.46,0,0,0,3.48,0l17.1-17.11a6.35,6.35,0,0,0,0-9Z"/><path class="cls-8" d="M81.79,51.7,64,33.92a2.46,2.46,0,0,0-3.48,0L42.75,51.7a6.35,6.35,0,0,0,0,9L60.53,78.47a2.48,2.48,0,0,0,3.48,0L81.79,60.68A6.35,6.35,0,0,0,81.79,51.7Z"/><path class="cls-9" d="M28.51,68.5,16.92,56.91a2.45,2.45,0,0,0-3.47,0L1.86,68.5a6.35,6.35,0,0,0,0,9L13.45,89.07a2.45,2.45,0,0,0,3.47,0L28.51,77.48A6.35,6.35,0,0,0,28.51,68.5Z"/><path class="cls-10" d="M31.58,32.88a2.45,2.45,0,0,0,3.47,0L46.64,21.29a6.35,6.35,0,0,0,0-9L35.05.72a2.45,2.45,0,0,0-3.47,0L20,12.31a6.35,6.35,0,0,0,0,9Z"/></g></g></svg>